<svg width="23" height="23" viewBox="0 0 23 23" fill="none" xmlns="http://www.w3.org/2000/svg">
<path d="M23 8C23 12.4183 19.4183 16 15 16C10.5817 16 7 12.4183 7 8C7 3.58172 10.5817 0 15 0C19.4183 0 23 3.58172 23 8ZM10.1719 8C10.1719 10.6665 12.3335 12.8281 15 12.8281C17.6665 12.8281 19.8281 10.6665 19.8281 8C19.8281 5.33349 17.6665 3.17185 15 3.17185C12.3335 3.17185 10.1719 5.33349 10.1719 8Z" fill="#DDDDFF"/>
<path d="M0.939502 19.9394C0.353716 20.5251 0.353716 21.4749 0.939502 22.0607C1.52529 22.6465 2.47504 22.6465 3.06082 22.0607L0.939502 19.9394ZM10.2728 10.606L0.939502 19.9394L3.06082 22.0607L12.3942 12.7273L10.2728 10.606Z" fill="#DDDDFF"/>
</svg>
